<svg width="130" height="52" viewBox="0 0 130 52" fill="none" xmlns="http://www.w3.org/2000/svg">
<path d="M21.6667 45.3667C21.6667 45.2278 21.7348 45.1577 21.8711 45.1577H26.2806C26.4227 45.1577 26.4931 45.2289 26.4931 45.3712V45.7395C26.4931 45.7938 26.4735 45.8424 26.4354 45.8842C26.3961 45.9271 26.3441 45.9485 26.2806 45.9485H22.4694V48.2951H23.4164C23.5989 48.2951 23.7871 48.2962 23.9823 48.2973C24.1775 48.2984 24.3669 48.2996 24.5517 48.2996H25.4999C25.5553 48.2996 25.6038 48.3165 25.6442 48.3493C25.6847 48.382 25.7043 48.4363 25.7043 48.5086V48.8803C25.7043 48.9356 25.6858 48.9831 25.6512 49.026C25.6154 49.0678 25.5645 49.0893 25.4999 49.0893H22.4694V51.7092C22.4694 51.8357 22.3966 51.9001 22.2511 51.9001H21.8711C21.7348 51.9001 21.6667 51.8357 21.6667 51.7092V45.3667Z" fill="#1C242E"/>
<path d="M35.8072 49.6525H38.5225L37.1724 46.3298L35.8072 49.6525ZM34.948 51.7177C34.8995 51.8397 34.814 51.8996 34.6939 51.8996H34.2943C34.1615 51.8996 34.0945 51.851 34.0945 51.7538C34.0945 51.7267 34.098 51.6985 34.1037 51.668C34.1072 51.6555 34.1118 51.6454 34.1188 51.6363C34.4525 50.85 34.747 50.1552 35.0023 49.5553C35.2575 48.9543 35.4792 48.4323 35.6675 47.9883C35.8569 47.5455 36.0163 47.1726 36.1456 46.8699C36.2761 46.5671 36.3836 46.3163 36.4667 46.1186C36.5499 45.9197 36.6145 45.7683 36.6619 45.6621C36.7069 45.556 36.7416 45.478 36.7635 45.4283C36.7855 45.3786 36.7982 45.3447 36.8051 45.3255C36.8178 45.2927 36.8386 45.2566 36.8675 45.217C36.8975 45.1786 36.9541 45.1583 37.0372 45.1583H37.311C37.3883 45.1583 37.4415 45.1786 37.4703 45.217C37.5004 45.2566 37.5223 45.2927 37.5385 45.3255L40.211 51.6408C40.211 51.6442 40.2167 51.6589 40.2283 51.686C40.2387 51.7131 40.2445 51.7357 40.2445 51.7538C40.2445 51.8024 40.2248 51.8397 40.1856 51.8634C40.1474 51.8883 40.0966 51.8996 40.0354 51.8996H39.6358C39.5734 51.8996 39.5226 51.8837 39.4811 51.8521C39.4395 51.8193 39.4071 51.7787 39.3852 51.7267L38.847 50.4241H35.4735L34.948 51.7177Z" fill="#1C242E"/>
<path d="M53.8371 45.7479C53.8717 45.7716 53.8995 45.7965 53.9237 45.8202C53.9468 45.8451 53.9572 45.8733 53.9572 45.9072C53.9572 45.932 53.9514 45.958 53.9364 45.9863C53.9237 46.0156 53.9087 46.0405 53.8925 46.062L53.6973 46.3602C53.6477 46.4303 53.5957 46.4653 53.5403 46.4653C53.5183 46.463 53.4941 46.4551 53.4664 46.445C53.4386 46.4348 53.4063 46.4167 53.3728 46.393C53.1407 46.2292 52.8854 46.1004 52.6048 46.0066C52.3253 45.9128 52.0412 45.8665 51.7536 45.8665C51.3482 45.8665 50.9752 45.9388 50.6368 46.0846C50.2984 46.2292 50.0074 46.4258 49.7625 46.672C49.5177 46.9183 49.3283 47.2042 49.192 47.5284C49.0557 47.8515 48.9876 48.1927 48.9876 48.5486C48.9876 48.9248 49.0626 49.275 49.2151 49.6004C49.3664 49.9257 49.5697 50.2082 49.8226 50.4466C50.0767 50.6861 50.3689 50.8736 50.7003 51.0092C51.0306 51.1459 51.376 51.2137 51.7351 51.2137C51.8552 51.2137 51.9742 51.2069 52.0897 51.1933C52.2052 51.1798 52.323 51.1572 52.4408 51.1233C52.5574 51.0905 52.6799 51.0465 52.8046 50.9922C52.9293 50.9369 53.061 50.8691 53.1961 50.7866C53.225 50.7753 53.255 50.7584 53.2873 50.7358C53.3197 50.7132 53.3509 50.6895 53.3797 50.6669C53.4086 50.6443 53.4386 50.6251 53.4664 50.6104C53.4941 50.5957 53.5172 50.5878 53.5357 50.5878C53.5946 50.5878 53.6465 50.6251 53.6927 50.7008L53.9075 51.0465C53.9283 51.086 53.9399 51.1278 53.9399 51.173C53.9399 51.2363 53.9041 51.2882 53.8325 51.3278C53.538 51.5368 53.2146 51.7006 52.8623 51.8204C52.5101 51.939 52.129 52 51.7201 52C51.3933 52 51.0791 51.9582 50.7789 51.8768C50.4786 51.7955 50.1979 51.6791 49.9346 51.5277C49.6713 51.3752 49.4322 51.1956 49.2174 50.9843C49.0014 50.7742 48.8178 50.5415 48.6642 50.2861C48.5117 50.0297 48.3939 49.754 48.3096 49.4592C48.2265 49.1643 48.1849 48.8559 48.1849 48.535C48.1849 48.2175 48.2265 47.9114 48.3096 47.6165C48.3939 47.3217 48.5129 47.0449 48.6677 46.7873C48.8224 46.5308 49.0061 46.2958 49.222 46.0846C49.4368 45.8722 49.6759 45.6914 49.9392 45.5411C50.2026 45.392 50.4844 45.2757 50.7858 45.1921C51.0872 45.1096 51.4025 45.0667 51.7305 45.0667C52.1197 45.0667 52.4916 45.1265 52.8462 45.244C53.2007 45.3626 53.531 45.531 53.8371 45.7479Z" fill="#1C242E"/>
<path d="M67.3599 45.1581C67.4153 45.1581 67.465 45.1751 67.5089 45.2079C67.5516 45.2418 67.5759 45.2915 67.5828 45.3581V45.7298C67.5828 45.7908 67.5632 45.8417 67.525 45.8846C67.4858 45.9264 67.4315 45.9478 67.3599 45.9478H65.378V51.6949C65.378 51.7526 65.3607 51.8011 65.3249 51.8407C65.2891 51.8802 65.236 51.8994 65.1655 51.8994H64.789C64.7267 51.8994 64.6758 51.8813 64.6366 51.8429C64.595 51.8045 64.5754 51.7559 64.5754 51.6949V45.9478H62.5843C62.5231 45.9478 62.4723 45.9309 62.433 45.8959C62.3949 45.8609 62.3764 45.8055 62.3764 45.7298V45.3581C62.3764 45.2971 62.3949 45.2485 62.433 45.2124C62.4723 45.1762 62.5231 45.1581 62.5843 45.1581H67.3599Z" fill="#1C242E"/>
<path d="M76.512 48.531C76.512 48.9038 76.5836 49.2517 76.7256 49.5771C76.8677 49.9025 77.064 50.1872 77.3123 50.4312C77.5618 50.6741 77.8528 50.8662 78.1855 51.0051C78.5169 51.1441 78.8738 51.2141 79.2549 51.2141C79.6291 51.2141 79.9825 51.1441 80.3151 51.0051C80.6478 50.8662 80.9376 50.6741 81.1825 50.4312C81.4285 50.1872 81.6237 49.9025 81.768 49.5771C81.9112 49.2517 81.984 48.9038 81.984 48.531C81.984 48.2858 81.9505 48.0497 81.8858 47.8226C81.8212 47.5955 81.7288 47.3831 81.6098 47.1854C81.4908 46.9866 81.3476 46.8069 81.1825 46.6454C81.0173 46.4827 80.8325 46.3437 80.6304 46.2274C80.4283 46.111 80.2112 46.0206 79.9779 45.9574C79.7469 45.8941 79.5055 45.8613 79.2549 45.8613C78.8738 45.8613 78.5169 45.9325 78.1855 46.0726C77.8528 46.2138 77.5618 46.4047 77.3123 46.6454C77.064 46.8849 76.8677 47.1685 76.7256 47.4938C76.5836 47.8192 76.512 48.1649 76.512 48.531ZM79.2549 45.0671C79.5795 45.0671 79.8924 45.1078 80.1939 45.1891C80.4965 45.2716 80.7771 45.388 81.0393 45.5393C81.3003 45.6907 81.5394 45.8715 81.7565 46.0816C81.9736 46.2929 82.1572 46.5268 82.3108 46.7855C82.4633 47.0442 82.5823 47.3221 82.6689 47.6181C82.7532 47.9152 82.7948 48.2248 82.7948 48.5445C82.7948 48.862 82.7543 49.1681 82.6712 49.4641C82.5869 49.759 82.4679 50.0347 82.312 50.29C82.1584 50.5464 81.9736 50.7792 81.7576 50.9893C81.5428 51.1994 81.3038 51.3791 81.0416 51.5293C80.7783 51.6796 80.4953 51.7948 80.1927 51.8762C79.889 51.9586 79.5725 51.9993 79.2457 51.9993C78.9177 51.9993 78.6035 51.9586 78.3033 51.8762C78.003 51.7948 77.7212 51.6785 77.4579 51.5271C77.1957 51.3757 76.9566 51.1949 76.7418 50.9848C76.527 50.7747 76.3434 50.5419 76.1898 50.2855C76.0362 50.0301 75.9172 49.7545 75.834 49.4596C75.7509 49.1647 75.7093 48.8563 75.7093 48.5355C75.7093 48.218 75.7509 47.9118 75.834 47.6158C75.9172 47.321 76.0373 47.0453 76.1921 46.7877C76.3457 46.5301 76.5316 46.2963 76.7464 46.0839C76.9613 45.8726 77.2003 45.6919 77.4636 45.5416C77.7258 45.3925 78.0088 45.2761 78.3102 45.1925C78.6116 45.1089 78.9269 45.0671 79.2549 45.0671Z" fill="#1C242E"/>
<path d="M96.1004 47.2963C96.1004 47.1144 96.0646 46.9427 95.9942 46.7789C95.9226 46.6151 95.8255 46.4705 95.702 46.3451C95.5772 46.2197 95.4306 46.1191 95.2608 46.0457C95.0899 45.9711 94.9085 45.9338 94.7134 45.9338H92.6299V48.6532H94.7272C94.9212 48.6532 95.1037 48.617 95.27 48.5447C95.4375 48.4724 95.5819 48.3741 95.7043 48.2498C95.8267 48.1256 95.9226 47.981 95.9942 47.816C96.0646 47.6511 96.1004 47.4782 96.1004 47.2963ZM91.826 45.3757C91.826 45.3068 91.8445 45.2526 91.8826 45.2142C91.9196 45.1769 91.9693 45.1577 92.0305 45.1577H94.7134C95.0194 45.1577 95.3047 45.2142 95.5703 45.326C95.8336 45.4379 96.0646 45.5915 96.2609 45.787C96.4573 45.9813 96.612 46.2095 96.7252 46.4705C96.8384 46.7303 96.8939 47.0071 96.8939 47.3008C96.8939 47.5155 96.8638 47.7211 96.8015 47.9177C96.7391 48.1154 96.6536 48.2973 96.5416 48.4656C96.4307 48.6328 96.2968 48.7831 96.1432 48.9153C95.9872 49.0463 95.8163 49.1548 95.6269 49.2395L96.8476 51.7001C96.8638 51.7363 96.8707 51.7634 96.8707 51.7815C96.8707 51.8154 96.8569 51.8425 96.8269 51.8651C96.798 51.8877 96.7564 51.9001 96.7033 51.9001H96.2355C96.1732 51.9001 96.1247 51.8843 96.0889 51.8538C96.0531 51.8244 96.023 51.7815 95.9988 51.7272L94.875 49.4158C94.8415 49.4225 94.8057 49.4259 94.7688 49.4282C94.7318 49.4293 94.6822 49.4304 94.621 49.4304H92.6299V51.7001C92.6299 51.8334 92.5617 51.9001 92.4255 51.9001H92.0305C91.8942 51.9001 91.826 51.8334 91.826 51.7001V45.3757Z" fill="#1C242E"/>
<path d="M105.578 45.3899C105.538 45.3322 105.517 45.287 105.517 45.2532C105.517 45.1899 105.564 45.1583 105.657 45.1583H106.259C106.291 45.1605 106.316 45.1639 106.334 45.1673C106.353 45.1707 106.37 45.1786 106.385 45.1921C106.4 45.2057 106.416 45.2249 106.434 45.2486C106.45 45.2724 106.473 45.3062 106.501 45.3492L108.223 48.1227L109.972 45.3119C110.009 45.252 110.043 45.2125 110.072 45.1944C110.102 45.1763 110.14 45.1639 110.186 45.1583H110.822C110.895 45.1583 110.933 45.1854 110.933 45.2396C110.933 45.252 110.929 45.269 110.922 45.2927C110.914 45.3153 110.901 45.3379 110.883 45.3627C110.501 45.9615 110.127 46.5558 109.759 47.1444C109.39 47.733 109.014 48.3272 108.627 48.926V51.686C108.627 51.8284 108.558 51.8995 108.417 51.8995H108.018C107.889 51.8995 107.823 51.8284 107.823 51.686V48.9531L105.578 45.3899Z" fill="#1C242E"/>
<path d="M21.0353 25.4888C21.0353 28.9868 19.8342 31.6336 17.4286 33.4278C15.3324 34.9762 12.4671 35.7498 8.83036 35.7498H0V2.32001H8.46194C11.6668 2.32001 14.1937 3.00199 16.0439 4.36363C18.17 5.912 19.2325 8.23282 19.2325 11.3272C19.2325 14.1758 18.0153 16.311 15.5796 17.7353C17.3062 18.292 18.6458 19.2593 19.6021 20.6372C20.5572 22.0139 21.0353 23.6319 21.0353 25.4888ZM13.4996 11.6532C13.4996 8.96003 11.8296 7.61347 8.48966 7.61347H5.63937V15.97H7.70779C9.51637 15.97 10.8641 15.7079 11.7534 15.1814C12.9187 14.5319 13.4996 13.3558 13.4996 11.6532ZM15.3036 25.8135C15.3036 22.4396 13.3564 20.7532 9.45978 20.7532H5.63937V30.4563H9.41358C11.8966 30.4563 13.6012 29.8532 14.5205 28.6458C15.0426 27.965 15.3036 27.0209 15.3036 25.8135Z" fill="#1C242E"/>
<path d="M48.866 35.7495H43.8283V32.778C41.7934 35.1301 39.1903 36.3062 36.0155 36.3062C32.4711 36.3062 29.5503 35.0918 27.2532 32.662C24.9573 30.2322 23.8105 27.2375 23.8105 23.678C23.8105 20.2112 24.9631 17.256 27.2694 14.8099C29.5746 12.365 32.4353 11.1425 35.848 11.1425C39.1083 11.1425 41.7056 12.2722 43.6436 14.5315V11.792H48.866V35.7495ZM43.8283 23.8635C43.8283 21.6981 43.1146 19.832 41.6837 18.2685C40.2551 16.7074 38.4812 15.9245 36.3608 15.9245C34.3027 15.9245 32.5508 16.6981 31.1071 18.2453C29.6635 19.7937 28.9405 21.6053 28.9405 23.678C28.9405 25.783 29.6716 27.6318 31.1291 29.2254C32.59 30.8202 34.3639 31.617 36.4532 31.617C38.4211 31.617 40.1396 30.8283 41.6144 29.2486C43.0915 27.6712 43.8283 25.8758 43.8283 23.8635Z" fill="#1C242E"/>
<path d="M76.8364 27.3464C76.0026 30.1937 74.5624 32.4148 72.5137 34.0084C70.4637 35.6032 67.9587 36.4 65.001 36.4C61.3943 36.4 58.4204 35.1996 56.0771 32.801C53.7362 30.4025 52.5651 27.3928 52.5651 23.7706C52.5651 20.1183 53.7362 17.1016 56.0771 14.717C58.4204 12.3347 61.4116 11.1424 65.0472 11.1424C68.0049 11.1424 70.5088 11.9171 72.5599 13.4644C74.6086 15.0116 76.0188 17.2083 76.7891 20.0568H71.4719C70.2096 17.3022 67.9749 15.9244 64.7701 15.9244C62.6427 15.9244 60.9323 16.684 59.6377 18.1988C58.3442 19.7158 57.6952 21.5727 57.6952 23.7706C57.6952 25.9696 58.3581 27.8103 59.6839 29.2949C61.0709 30.8746 62.8425 31.6633 65.001 31.6633C66.5105 31.6633 67.8502 31.2851 69.0224 30.5266C70.1935 29.7681 71.0111 28.7092 71.4719 27.3464H76.8364Z" fill="#1C242E"/>
<path d="M101.062 35.7495H95.8376V23.0122C95.8376 18.4425 94.2334 16.1564 91.0274 16.1564C87.5154 16.1564 85.7599 18.8426 85.7599 24.2161V35.7495H80.5352V0H85.7599V14.4387C87.0811 12.3951 89.2004 11.3745 92.1188 11.3745C95.0707 11.3745 97.3285 12.3325 98.8957 14.2474C100.339 16.008 101.062 18.403 101.062 21.4302V35.7495Z" fill="#1C242E"/>
<path d="M130 23.539C130 27.1298 128.791 30.1709 126.372 32.6622C123.951 35.1535 120.954 36.3992 117.379 36.3992C113.836 36.3992 110.846 35.1767 108.41 32.7318C105.977 30.2869 104.76 27.2841 104.76 23.7246C104.76 20.2277 105.984 17.233 108.433 14.7405C110.884 12.2492 113.836 11.0024 117.288 11.0024C120.77 11.0024 123.759 12.226 126.255 14.6709C128.753 17.1159 130 20.0723 130 23.539ZM124.778 23.771C124.778 21.5429 124.087 19.6779 122.713 18.1759C121.336 16.6763 119.55 15.9247 117.357 15.9247C115.193 15.9247 113.438 16.6832 112.093 18.1991C110.748 19.7162 110.075 21.5742 110.075 23.771C110.075 25.9688 110.748 27.8025 112.093 29.272C113.438 30.7427 115.207 31.478 117.404 31.478C119.567 31.478 121.336 30.7358 122.713 29.2488C124.087 27.7643 124.778 25.9375 124.778 23.771Z" fill="#1C242E"/>
</svg>
