<svg width="256" height="256" viewBox="0 0 256 256" fill="none" xmlns="http://www.w3.org/2000/svg">
<rect width="256" height="256" fill="white"/>
<path d="M73.2829 22.307C72.2891 19.4199 66.9998 3 64.865 3C64 3 60.3849 27.2146 65.5063 36.5077L65.5004 36.5665C63.3165 58.3246 56.4849 126.387 66.461 164.67C69.0892 177.051 72.8728 186.357 76.1716 194.47C79.0536 201.558 81.5656 207.735 82.6139 214.259C85.101 229.738 87.6429 248.049 85.6623 253H93.0898C94.0752 253 94.74 232.467 95.5657 223.297C96.2155 229.513 100.022 247.554 97.479 252.97H105.316C107.425 252.97 109.554 219.705 107.452 208.018C107.745 206.284 108.128 204.577 108.569 202.888C118.487 203.111 129.588 201.25 141.645 199.228L141.648 199.227C144.476 198.753 147.356 198.27 150.285 197.804C152.2 202.877 153.376 206.653 154.789 213.031C158.391 229.296 163.404 246.069 159.938 253H165.88C166.703 253 169.076 226.026 169.842 219.337C170.128 222.785 177.764 232.703 170.832 253L179.154 252.97C181.377 252.97 186.135 218.005 183.925 205.704C184.7 201.112 186.079 196.098 187.516 190.871C192.5 170 193.004 182 195.095 159.931C198.5 124 201.038 128.743 178.516 117.564C163.763 112.396 125.978 106.497 98.2331 110.579C93.225 98.8682 93.4637 71.5372 94.7765 53.5223C98.892 53.6821 102.655 53.4434 104.87 52.7043C104.87 52.7043 111.399 42.298 108.506 40.8596C106.213 39.7226 101.013 38.1485 99.7713 30.7413C100.503 28.8775 101.042 26.9904 101.431 25.1739C102.5 20.1947 100.872 5 99.0319 5.47527C97 6 92.4822 18.552 92.0995 19.8317C87.1478 16.8614 77.2443 16.8614 73.2829 22.307Z" stroke="#80828C" stroke-width="2" stroke-linejoin="round" stroke-dasharray="8 4"/>
</svg>
